<svg xmlns="http://www.w3.org/2000/svg" xmlns:xlink="http://www.w3.org/1999/xlink" width="10px" height="17px" viewBox="0 0 10 17"><title>angle-left</title><g id="Page-1" stroke="none" stroke-width="1" fill="none" fill-rule="evenodd"><g id="Dr-Amani-Homepage(Blue)" transform="translate(-64.000000, -427.000000)" fill="#42B5F1" fill-rule="nonzero"><g id="Slider" transform="translate(0.000000, 112.000000)"><g id="Arrow-left" transform="translate(46.000000, 299.000000)"><g id="angle-left" transform="translate(18.666667, 16.888889)"><path d="M0.555555556,8.66666667 L6.88888889,14.8888889 C7.33333333,15.3333333 8,15.3333333 8.44444444,14.8888889 C8.44444444,14.8888889 8.44444444,14.8888889 8.44444444,14.8888889 C8.88888889,14.4444444 8.88888889,13.7777778 8.44444444,13.3333333 L3,7.77777778 L8.44444444,2.22222222 C8.88888889,1.77777778 8.88888889,1.11111111 8.44444444,0.666666667 C8.22222222,0.444444444 8,0.333333333 7.66666667,0.333333333 C7.33333333,0.333333333 7.11111111,0.444444444 6.88888889,0.666666667 L0.555555556,6.88888889 C0.111111111,7.44444444 0.111111111,8.11111111 0.555555556,8.66666667 C0.555555556,8.55555556 0.555555556,8.55555556 0.555555556,8.66666667 Z" id="Path"></path></g></g></g></g></g></svg>