<svg xmlns="http://www.w3.org/2000/svg" width="14" height="15.167" viewBox="0 0 14 15.167"><defs><style>.a{fill:#42a198;}</style></defs><path class="a" d="M11.9,15.167H2.1A2.086,2.086,0,0,1,0,13.1V3.447A2.086,2.086,0,0,1,2.1,1.379h.7V.689a.7.7,0,0,1,1.4,0v.689H9.8V.689a.7.7,0,0,1,1.4,0v.689h.7A2.087,2.087,0,0,1,14,3.447V13.1A2.087,2.087,0,0,1,11.9,15.167ZM1.4,6.894v6.2a.7.7,0,0,0,.7.689h9.8a.7.7,0,0,0,.7-.689v-6.2Zm.7-4.136a.7.7,0,0,0-.7.689V5.515H12.6V3.447a.7.7,0,0,0-.7-.689h-.7v.689a.7.7,0,0,1-1.4,0V2.758H4.2v.689a.7.7,0,0,1-1.4,0V2.758Zm8.4,9.652a.689.689,0,1,1,.7-.689A.7.7,0,0,1,10.5,12.409Zm-3.5,0a.689.689,0,1,1,.7-.689A.7.7,0,0,1,7,12.409Zm-3.5,0a.689.689,0,1,1,.7-.689A.7.7,0,0,1,3.5,12.409Zm7-2.758a.689.689,0,1,1,.7-.689A.7.7,0,0,1,10.5,9.652Zm-3.5,0a.689.689,0,1,1,.7-.689A.7.7,0,0,1,7,9.652Zm-3.5,0a.689.689,0,1,1,.7-.689A.7.7,0,0,1,3.5,9.652Z"></path></svg>